<svg xmlns="http://www.w3.org/2000/svg" xmlns:xlink="http://www.w3.org/1999/xlink"><symbol id="icon-close" viewBox="0 0 20 20"><g fill="none"><path d="M.293 18.291a1 1 0 101.414 1.414L10 11.413l8.292 8.292a1 1 0 101.414-1.414l-8.292-8.292 8.292-8.292A1 1 0 1018.291.293L9.999 8.585 1.707.293A1 1 0 10.293 1.707L8.585 10 .293 18.291z"/></g></symbol><symbol id="search" viewBox="0 0 24 24"><g fill="none">
<path d="M16.927 17.0401L20.4001 20.4001M19.2801 11.4401C19.2801 15.77 15.77 19.2801 11.4401 19.2801C7.11019 19.2801 3.6001 15.77 3.6001 11.4401C3.6001 7.11019 7.11019 3.6001 11.4401 3.6001C15.77 3.6001 19.2801 7.11019 19.2801 11.4401Z" stroke="white" stroke-width="2" stroke-linecap="round"/>
</g></symbol></svg>