<svg width="30" height="30" viewBox="0 0 30 30" fill="none" xmlns="http://www.w3.org/2000/svg">
<path d="M15 0.416992C6.71776 0.416992 0 6.94806 0 15.0001C0 23.0522 6.71776 29.5833 15 29.5833C23.2822 29.5833 30 23.0522 30 15.0001C30 6.94806 23.2879 0.416992 15 0.416992ZM14.2822 15.7088C14.2822 18.4401 11.9944 20.6644 9.18505 20.6644H4.86729V17.8404H9.18505C10.3907 17.8404 11.372 16.8864 11.372 15.7143V7.96751H14.2766V15.7143L14.2822 15.7088ZM25.1327 20.6589H20.815C18.0056 20.6589 15.7178 18.4347 15.7178 15.7034V7.95661H18.6224V15.7034C18.6224 16.8755 19.6037 17.8295 20.8093 17.8295H25.1271V20.6535L25.1327 20.6589Z" fill="#06A5DA"/>
</svg>
